# xmcd
#
# Track frame offsets:
#	150
#	18502
#	28497
#	40785
#	58310
#	71210
#	87835
#	105410
#	117537
#	134132
#	145885
#	157207
#	172955
#
# Disc length: 2476 seconds
# Revision: 18
# Processed by: cddbd v1.5.2PL0 Copyright (c) Steve Scherf et al.
# Submitted via: dBpowerAMP V12.0
#
DISCID=c609aa0d
DTITLE=Lisa Ekdahl - Bortom Det Blå [dBP-LITE-FLAC@]
DYEAR=1997
DGENRE=Pop
TTITLE0=Bortom det blå
TTITLE1=Gå dit ifall du minns
TTITLE2=Två lyckliga dårar
TTITLE3=Jag behöver inget mer
TTITLE4=Vi tillhör varann
TTITLE5=Sakta, sakta
TTITLE6=Jag vill bara vara
TTITLE7=Du var inte där för mig
TTITLE8=Hyenorna skrattade, gamarna log
TTITLE9=Genom dig ser jag ljuset
TTITLE10=Cirklar
TTITLE11=Vill ha dig kvar
TTITLE12=Tänk inte mera
EXTD=
EXTT0=
EXTT1=
EXTT2=
EXTT3=
EXTT4=
EXTT5=
EXTT6=
EXTT7=
EXTT8=
EXTT9=
EXTT10=
EXTT11=
EXTT12=
PLAYORDER=
